<svg width="72" height="72" viewBox="0 0 72 72" fill="none" xmlns="http://www.w3.org/2000/svg">
<g clip-path="url(#clip0_18_1369)">
<path d="M0 0V60.48C0 63.5353 1.21371 66.4655 3.37413 68.6259C5.53455 70.7863 8.46471 72 11.52 72H60.48C63.5353 72 66.4655 70.7863 68.6259 68.6259C70.7863 66.4655 72 63.5353 72 60.48V11.52C72 8.46471 70.7863 5.53455 68.6259 3.37413C66.4655 1.21371 63.5353 0 60.48 0L0 0ZM42.768 39.24C47.448 39.24 49.608 42.48 49.68 47.16H44.856C44.928 46.296 44.712 45.36 44.424 44.64C44.136 44.064 43.56 43.848 42.768 43.848C41.4 43.848 40.68 44.64 40.68 46.368C40.608 48.096 41.544 49.032 42.984 49.608C45.144 50.472 47.808 51.84 48.744 53.496C49.608 54.792 50.04 56.448 50.04 58.464C50.04 63.288 47.304 66.24 42.552 66.24C37.584 66.24 35.352 63.144 35.28 58.176H40.32C40.32 60.552 41.112 61.704 42.696 61.704C43.488 61.704 44.064 61.488 44.352 60.984C44.928 60.048 45.072 57.456 44.208 56.448C43.272 55.224 41.472 54.648 40.248 54C38.592 53.208 37.368 52.272 36.576 51.192C35.856 50.112 35.496 48.528 35.496 46.584C35.496 42.264 38.304 39.168 42.768 39.24ZM58.968 39.24C63.72 39.24 65.88 42.48 65.952 47.16H61.128C61.128 46.296 60.984 45.36 60.624 44.64C60.336 44.064 59.832 43.848 59.04 43.848C57.6 43.848 56.88 44.64 56.88 46.368C56.88 48.096 57.744 49.032 59.256 49.608C61.344 50.472 64.08 51.84 65.016 53.496C65.808 54.792 66.24 56.448 66.24 58.464C66.312 63.288 63.576 66.24 58.824 66.24C53.784 66.24 51.552 63.072 51.48 58.176H56.52C56.52 60.408 57.312 61.704 58.896 61.704C59.688 61.704 60.264 61.488 60.552 60.984C61.2 60.048 61.344 57.456 60.408 56.448C59.544 55.224 57.744 54.648 56.448 54C54.792 53.208 53.568 52.272 52.848 51.192C52.128 50.112 51.768 48.528 51.768 46.584C51.696 42.264 54.504 39.168 58.968 39.24ZM25.875 39.294C28.008 39.276 30.132 39.888 31.392 41.184C32.688 42.48 33.408 44.568 33.336 47.16H28.008C28.08 45.792 27.72 44.784 26.712 44.28C25.776 43.848 24.408 44.136 24.048 45C23.688 45.792 23.472 46.728 23.544 47.592V58.104C23.544 60.336 24.336 61.488 25.848 61.488C26.1678 61.5021 26.4862 61.4372 26.775 61.299C27.0638 61.1609 27.3142 60.9538 27.504 60.696C28.008 59.976 28.08 59.04 28.008 58.176H33.336C33.624 63.072 30.384 66.312 25.632 66.24C21.024 66.24 18.144 63.648 18.216 58.824V46.728C18.216 44.28 18.936 42.408 20.304 41.184C21.6 39.96 23.742 39.312 25.875 39.294Z" fill="#52498C"/>
</g>
<defs>
<clipPath id="clip0_18_1369">
<rect width="72" height="72" fill="white"/>
</clipPath>
</defs>
</svg>
