<svg width="72" height="72" viewBox="0 0 72 72" fill="none" xmlns="http://www.w3.org/2000/svg">
<g clip-path="url(#clip0_18_1321)">
<path fill-rule="evenodd" clip-rule="evenodd" d="M12 0C5.37258 0 0 5.37258 0 12V60C0 66.6274 5.37258 72 12 72H60C66.6274 72 72 66.6274 72 60V12C72 5.37258 66.6274 0 60 0H12ZM51.8225 8.12775C49.8171 6.74205 47.4374 5.99989 44.9999 6.00004H26.9999C24.5623 5.99989 22.1826 6.74205 20.1772 8.12775C18.1719 9.51345 16.6361 11.477 15.7743 13.7571C14.9124 16.0371 14.7653 18.5256 15.3526 20.8913C15.9399 23.257 17.2337 25.3878 19.0619 27C17.7851 28.1262 16.7626 29.5112 16.0623 31.0629C15.3619 32.6146 14.9998 34.2976 14.9999 36C14.9998 37.7025 15.3619 39.3855 16.0623 40.9372C16.7626 42.4889 17.7851 43.8739 19.0619 45C17.5581 46.3265 16.4107 48.0085 15.7245 49.8926C15.0382 51.7767 14.8351 53.8027 15.1335 55.7855C15.432 57.7683 16.2225 59.6448 17.433 61.2434C18.6434 62.8419 20.2352 64.1117 22.0628 64.9367C23.8903 65.7617 25.8955 66.1155 27.8951 65.9659C29.8947 65.8164 31.8249 65.1681 33.5094 64.0804C35.1939 62.9926 36.5789 61.5002 37.5381 59.7393C38.4972 57.9784 38.9997 56.0052 38.9999 54V46.395C41.5776 47.887 44.6181 48.367 47.5301 47.7417C50.4421 47.1165 53.0175 45.4307 54.7556 43.0121C56.4937 40.5934 57.2703 37.6149 56.9343 34.6555C56.5984 31.6962 55.1739 28.9675 52.9379 27C54.766 25.3878 56.0598 23.257 56.6471 20.8913C57.2344 18.5256 57.0873 16.0371 56.2254 13.7571C55.3636 11.477 53.8278 9.51345 51.8225 8.12775ZM26.9999 48H32.9999V54C32.9999 55.1867 32.648 56.3468 31.9887 57.3335C31.3294 58.3202 30.3923 59.0892 29.2959 59.5433C28.1996 59.9974 26.9932 60.1163 25.8293 59.8848C24.6654 59.6532 23.5963 59.0818 22.7572 58.2427C21.9181 57.4036 21.3467 56.3345 21.1151 55.1706C20.8836 54.0067 21.0024 52.8003 21.4566 51.7039C21.9107 50.6076 22.6797 49.6705 23.6664 49.0112C24.6531 48.3519 25.8132 48 26.9999 48ZM26.9999 30H32.9999V42H26.9999C25.4086 42 23.8824 41.3679 22.7572 40.2427C21.632 39.1175 20.9999 37.5913 20.9999 36C20.9999 34.4087 21.632 32.8826 22.7572 31.7574C23.8824 30.6322 25.4086 30 26.9999 30ZM40.7572 31.7574C41.8824 30.6322 43.4086 30 44.9999 30C46.5911 30 48.1173 30.6322 49.2425 31.7574C50.3677 32.8826 50.9999 34.4087 50.9999 36C50.9999 37.5913 50.3677 39.1175 49.2425 40.2427C48.1173 41.3679 46.5911 42 44.9999 42C43.4086 42 41.8824 41.3679 40.7572 40.2427C39.632 39.1175 38.9999 37.5913 38.9999 36C38.9999 34.4087 39.632 32.8826 40.7572 31.7574ZM38.9999 12H44.9999L45.4498 12.015C47.0029 12.1248 48.4525 12.8341 49.4924 13.9929C50.5322 15.1517 51.0809 16.6694 51.0225 18.2252C50.9641 19.7811 50.3031 21.2533 49.1793 22.3309C48.0555 23.4085 46.5568 24.007 44.9999 24H38.9999V12ZM26.9999 12H32.9999V24H26.9999C25.4086 24 23.8824 23.3679 22.7572 22.2427C21.632 21.1175 20.9999 19.5913 20.9999 18C20.9999 16.4087 21.632 14.8826 22.7572 13.7574C23.8824 12.6322 25.4086 12 26.9999 12Z" fill="#52498C"/>
</g>
<defs>
<clipPath id="clip0_18_1321">
<rect width="72" height="72" fill="white"/>
</clipPath>
</defs>
</svg>
