<svg width="72" height="72" viewBox="0 0 72 72" fill="none" xmlns="http://www.w3.org/2000/svg">
<g clip-path="url(#clip0_18_1328)">
<path d="M70.6412 32.7915L39.2042 1.35898C38.7738 0.928338 38.2628 0.586722 37.7003 0.353648C37.1378 0.120574 36.5349 0.000610352 35.926 0.000610352C35.3171 0.000610352 34.7142 0.120574 34.1517 0.353648C33.5892 0.586722 33.0782 0.928338 32.6477 1.35898L26.1227 7.88398L34.4027 16.164C35.3793 15.8306 36.4298 15.7784 37.4346 16.0135C38.4393 16.2485 39.3578 16.7613 40.085 17.4932C40.8123 18.2252 41.3192 19.1469 41.5478 20.1532C41.7763 21.1594 41.7174 22.2096 41.3777 23.184L49.3562 31.167C50.5366 30.7514 51.8234 30.7501 53.0046 31.1634C54.1858 31.5767 55.1911 32.3799 55.8549 33.4408C56.5186 34.5017 56.8014 35.757 56.6565 37C56.5116 38.2431 55.9477 39.3997 55.0577 40.2795C54.1562 41.183 52.9692 41.746 51.699 41.8725C50.4289 41.9989 49.1542 41.681 48.0921 40.973C47.0301 40.265 46.2464 39.2106 45.8746 37.9895C45.5028 36.7684 45.566 35.4562 46.0532 34.2765L38.6057 26.8335V46.422C39.1367 46.677 39.6227 47.0235 40.0637 47.4615C40.9016 48.2987 41.4477 49.3834 41.6214 50.555C41.7951 51.7267 41.5871 52.9231 41.0282 53.9674C40.4692 55.0117 39.5891 55.8484 38.5178 56.3537C37.4465 56.8591 36.2411 57.0062 35.0797 56.7734C33.9184 56.5406 32.8628 55.9402 32.069 55.0611C31.2753 54.1819 30.7856 53.0706 30.6723 51.8916C30.5591 50.7126 30.8283 49.5284 31.4401 48.5142C32.0519 47.5 32.9739 46.7096 34.0697 46.26V26.4915C33.396 26.2154 32.7836 25.8088 32.2679 25.2949C31.7521 24.7811 31.3431 24.1702 31.0645 23.4976C30.7859 22.8249 30.6432 22.1038 30.6446 21.3757C30.646 20.6476 30.7915 19.927 31.0727 19.2555L22.9187 11.0925L1.36374 32.6475C0.933099 33.0779 0.591483 33.589 0.358409 34.1515C0.125335 34.714 0.00537109 35.3169 0.00537109 35.9257C0.00537109 36.5346 0.125335 37.1375 0.358409 37.7C0.591483 38.2625 0.933099 38.7735 1.36374 39.204L32.8007 70.641C33.2312 71.0716 33.7422 71.4132 34.3047 71.6463C34.8672 71.8794 35.4701 71.9993 36.079 71.9993C36.6879 71.9993 37.2908 71.8794 37.8533 71.6463C38.4158 71.4132 38.9268 71.0716 39.3572 70.641L70.6457 39.3525C71.0771 38.922 71.4192 38.4106 71.6527 37.8477C71.8862 37.2848 72.0064 36.6814 72.0064 36.072C72.0064 35.4626 71.8862 34.8592 71.6527 34.2962C71.4192 33.7333 71.0771 33.222 70.6457 32.7915" fill="#52498C"/>
</g>
<defs>
<clipPath id="clip0_18_1328">
<rect width="72" height="72" fill="white"/>
</clipPath>
</defs>
</svg>
