<svg width="72" height="72" viewBox="0 0 72 72" fill="none" xmlns="http://www.w3.org/2000/svg">
<g clip-path="url(#clip0_18_1326)">
<path d="M68.0394 3.96056C65.3967 1.31779 62.2169 -0.00239925 58.5002 3.27319e-06H13.4998C9.78067 3.27319e-06 6.60093 1.32019 3.96056 3.96056C1.31779 6.60334 -0.00239925 9.78307 3.27319e-06 13.4998V58.5002C3.27319e-06 62.2193 1.32019 65.3991 3.96056 68.0394C6.60334 70.6822 9.78308 72.0024 13.4998 72H24.0012C24.6859 72 25.2013 71.976 25.5472 71.9279C25.9502 71.8483 26.3138 71.6334 26.5779 71.3189C26.9215 70.9585 27.0933 70.4359 27.0933 69.7512L27.068 66.5619C27.0536 64.5293 27.0464 62.9197 27.0464 61.7328L25.9653 61.9202C25.2805 62.0451 24.4144 62.1004 23.3669 62.086C22.2739 62.0651 21.1844 61.9554 20.1091 61.758C18.9635 61.5502 17.8852 61.068 16.9666 60.3526C16.0024 59.6234 15.2833 58.6177 14.9053 57.4695L14.4368 56.3884C14.0404 55.5364 13.5444 54.7344 12.9592 53.9991C12.2865 53.1246 11.6066 52.5312 10.9195 52.2188L10.5951 51.9846C10.3699 51.8215 10.1643 51.6328 9.98248 51.4224C9.80879 51.2269 9.66655 51.0057 9.56084 50.7665C9.46714 50.5455 9.54523 50.3653 9.79509 50.2259C10.045 50.0818 10.499 50.0109 11.1573 50.0133L12.0943 50.1575C12.719 50.28 13.4914 50.6536 14.4115 51.2782C15.3415 51.9123 16.1184 52.7458 16.6855 53.718C17.4063 54.9961 18.2736 55.9728 19.2875 56.6479C20.3037 57.3206 21.3272 57.6569 22.3579 57.6569C23.3886 57.6569 24.2799 57.5789 25.0319 57.4227C25.7602 57.2718 26.4679 57.0346 27.1401 56.7163C27.4212 54.6238 28.1864 53.0141 29.4357 51.8873C27.8155 51.7271 26.2097 51.4453 24.6319 51.044C23.0921 50.6216 21.6114 50.0077 20.2244 49.2169C18.773 48.4267 17.491 47.3589 16.4513 46.0744C15.4518 44.8251 14.6314 43.1853 13.9899 41.1552C13.3508 39.1227 13.0313 36.7778 13.0313 34.1206C13.0313 30.3415 14.265 27.1221 16.7324 24.4625C15.5792 21.6203 15.6885 18.4346 17.0603 14.9053C17.9685 14.6218 19.3127 14.832 21.093 15.5359C22.8732 16.2399 24.1778 16.8405 25.0067 17.3378C25.8355 17.8423 26.4998 18.2652 26.9996 18.6063C29.929 17.7895 32.957 17.3796 35.9982 17.3883C39.0927 17.3883 42.0934 17.7943 45.0005 18.6063L46.7807 17.482C48.1501 16.6598 49.5945 15.9696 51.0945 15.4206C52.7498 14.7959 54.0159 14.6242 54.8928 14.9053C56.2983 18.437 56.422 21.6239 55.264 24.4661C57.7338 27.1209 58.9687 30.3403 58.9687 34.1242C58.9687 36.7814 58.648 39.1323 58.0065 41.1768C57.3674 43.2238 56.5398 44.8647 55.5235 46.0996C54.4625 47.3647 53.1757 48.4217 51.7287 49.2169C50.2151 50.0602 48.746 50.6692 47.3213 51.044C45.7435 51.4465 44.1377 51.7296 42.5174 51.8909C44.1391 53.2964 44.9512 55.5139 44.9536 58.5435V69.7512C44.9536 70.2798 45.0317 70.7086 45.1878 71.0378C45.2607 71.1958 45.3647 71.3375 45.4934 71.4545C45.6222 71.5715 45.7732 71.6614 45.9374 71.7189C46.281 71.8438 46.5861 71.9207 46.8528 71.9495C47.1195 71.9832 47.5015 71.9988 47.9988 71.9964H58.5002C62.2193 71.9964 65.3991 70.6762 68.0394 68.0358C70.6798 65.3955 72 62.2157 72 58.4966V13.4998C72 9.78067 70.6822 6.60093 68.0394 3.96056Z" fill="#52498C"/>
</g>
<defs>
<clipPath id="clip0_18_1326">
<rect width="72" height="72" fill="white"/>
</clipPath>
</defs>
</svg>
