<svg width="72" height="72" viewBox="0 0 72 72" fill="none" xmlns="http://www.w3.org/2000/svg">
<g clip-path="url(#clip0_18_1371)">
<path fill-rule="evenodd" clip-rule="evenodd" d="M16.875 0H55.125C64.4448 0 72 7.55519 72 16.875V55.125C72 64.4448 64.4448 72 55.125 72H16.875C7.55519 72 0 64.4448 0 55.125V16.875C0 7.55519 7.55519 0 16.875 0ZM15.9216 37.8543L13.5 10.6875H58.5L57.6953 19.672H23.3159L24.138 28.8717H56.8814L54.4112 56.4514L35.9865 61.5622L17.5852 56.4514L16.2956 42.0286H25.3128L25.9819 49.5104L35.9885 52.2172L46.0139 49.5065L47.0588 37.8543H15.9216Z" fill="#52498C"/>
</g>
<defs>
<clipPath id="clip0_18_1371">
<rect width="72" height="72" fill="white"/>
</clipPath>
</defs>
</svg>
