<svg width="72" height="72" viewBox="0 0 72 72" fill="none" xmlns="http://www.w3.org/2000/svg">
<g clip-path="url(#clip0_18_1365)">
<path fill-rule="evenodd" clip-rule="evenodd" d="M16.875 0H55.125C64.4448 0 72 7.55519 72 16.875V55.125C72 64.4448 64.4448 72 55.125 72H16.875C7.55519 72 0 64.4448 0 55.125V16.875C0 7.55519 7.55519 0 16.875 0ZM24.4411 56.8338L18.9314 60.1683L18.9311 60.1678C20.5261 63.5509 23.6679 66.3541 29.0806 66.3541C35.074 66.3541 39.1819 63.1642 39.1819 56.1563V33.055H32.4156V56.0607C32.4156 59.4435 31.0139 60.3132 28.7906 60.3132C26.4711 60.3132 25.5042 58.7185 24.4411 56.8338ZM48.3662 56.2536L42.857 59.4433C44.8384 63.3583 48.8983 66.3547 55.1811 66.3547C61.6091 66.3547 66.3937 63.0202 66.3937 56.93C66.3937 51.2755 63.1554 48.7628 57.4041 46.2976L55.7127 45.5729C52.813 44.316 51.5564 43.4941 51.5564 41.4644C51.5564 39.8213 52.813 38.5647 54.7947 38.5647C56.728 38.5647 57.9841 39.3862 59.1442 41.4644L64.4123 38.0812C62.1893 34.1665 59.0961 32.668 54.7947 32.668C48.7532 32.668 44.8865 36.5346 44.8865 41.6095C44.8865 47.1192 48.1248 49.7292 53.0065 51.807L54.6977 52.5324C57.7908 53.8852 59.6274 54.707 59.6274 57.0268C59.6274 58.9601 57.8398 60.3618 55.036 60.3618C51.7015 60.3618 49.8166 58.622 48.3662 56.2536Z" fill="#52498C"/>
</g>
<defs>
<clipPath id="clip0_18_1365">
<rect width="72" height="72" fill="white"/>
</clipPath>
</defs>
</svg>
