<svg width="72" height="72" viewBox="0 0 72 72" fill="none" xmlns="http://www.w3.org/2000/svg">
<path fill-rule="evenodd" clip-rule="evenodd" d="M67.1998 20.2224L35.9998 2.01599L4.7998 20.2224V51.7776L9.6286 54.5952L19.5022 50.6016C20.8309 50.0636 21.9687 49.1411 22.77 47.9525C23.5713 46.7639 23.9995 45.3631 23.9998 43.9296V19.2H28.7998V43.9296C28.7995 46.3192 28.0857 48.6543 26.7499 50.6357C25.4142 52.6171 23.5172 54.1546 21.3022 55.0512L14.8702 57.6528L35.9998 69.984L67.1998 51.7824V20.2224ZM33.5998 28.8C33.5998 26.2539 34.6112 23.8121 36.4116 22.0118C38.2119 20.2114 40.6537 19.2 43.1998 19.2H48.8014C53.659 19.2 57.5998 23.136 57.5998 27.9984V28.8H52.7998V27.9984C52.7998 27.4733 52.6964 26.9534 52.4954 26.4683C52.2945 25.9832 52 25.5424 51.6287 25.1711C51.2574 24.7998 50.8166 24.5053 50.3315 24.3044C49.8464 24.1034 49.3265 24 48.8014 24H43.1998C41.9268 24 40.7059 24.5057 39.8057 25.4059C38.9055 26.3061 38.3998 27.527 38.3998 28.8C38.3998 30.073 38.9055 31.2939 39.8057 32.1941C40.7059 33.0943 41.9268 33.6 43.1998 33.6H47.9998C50.5459 33.6 52.9877 34.6114 54.788 36.4118C56.5884 38.2121 57.5998 40.6539 57.5998 43.2C57.5998 45.7461 56.5884 48.1879 54.788 49.9882C52.9877 51.7886 50.5459 52.8 47.9998 52.8H43.1998C40.6537 52.8 38.2119 51.7886 36.4116 49.9882C34.6112 48.1879 33.5998 45.7461 33.5998 43.2H38.3998C38.3998 44.473 38.9055 45.6939 39.8057 46.5941C40.7059 47.4943 41.9268 48 43.1998 48H47.9998C49.2728 48 50.4937 47.4943 51.3939 46.5941C52.2941 45.6939 52.7998 44.473 52.7998 43.2C52.7998 41.927 52.2941 40.7061 51.3939 39.8059C50.4937 38.9057 49.2728 38.4 47.9998 38.4H43.1998C40.6537 38.4 38.2119 37.3886 36.4116 35.5882C34.6112 33.7879 33.5998 31.3461 33.5998 28.8Z" fill="#52498C"/>
</svg>
