<svg width="72" height="72" viewBox="0 0 72 72" fill="none" xmlns="http://www.w3.org/2000/svg">
<g clip-path="url(#clip0_18_1350)">
<path fill-rule="evenodd" clip-rule="evenodd" d="M55.125 0H16.875C7.55519 0 0 7.55519 0 16.875V55.125C0 64.4448 7.55519 72 16.875 72H55.125C64.4448 72 72 64.4448 72 55.125V16.875C72 7.55519 64.4448 0 55.125 0ZM36.0005 41.33C38.8985 41.33 41.2475 38.9807 41.2475 36.083C41.2475 33.1853 38.8985 30.836 36.0005 30.836C33.1025 30.836 30.7535 33.1853 30.7535 36.083C30.7535 38.9807 33.1028 41.33 36.0005 41.33ZM22.0041 12.0625C23.1646 11.3906 24.8968 11.4191 27.0096 12.2078C29.1123 12.9927 31.5389 14.5127 34.0361 16.73C34.5689 17.2031 35.104 17.7101 35.6395 18.2482C33.6658 20.2846 31.686 22.7016 29.7988 25.4029C26.5391 25.6794 23.4614 26.172 20.7149 26.8441C20.4544 25.8888 20.2357 24.9601 20.0603 24.0643C19.4609 21.0011 19.3766 18.3145 19.7356 16.2306C20.0964 14.1368 20.8936 12.7053 22.0041 12.0625L22.0041 12.0625ZM29.3876 25.9982C26.3302 26.2782 23.4468 26.75 20.8648 27.3807C21.5974 29.9419 22.6225 32.6828 23.913 35.4886C24.6866 33.8766 25.5416 32.2526 26.471 30.6404L26.5514 30.501H26.5527C27.4612 28.9337 28.4108 27.4283 29.3876 25.9982ZM24.2183 36.1431C25.0145 34.4558 25.9021 32.7514 26.8734 31.0579H26.8743L26.9546 30.9186C27.9608 29.1739 29.018 27.5069 30.1062 25.9362C31.9249 25.7889 33.8006 25.7091 35.7073 25.7037L35.7077 25.7044L35.8686 25.7044C37.9389 25.7034 39.9651 25.7901 41.9188 25.9559C42.9954 27.5237 44.0408 29.1816 45.0376 30.9035C46.0428 32.6398 46.9733 34.3814 47.8114 36.1025C46.9813 37.843 46.0546 39.6026 45.0459 41.3517C44.0441 43.0889 43.0003 44.7641 41.9284 46.3492C39.9685 46.507 37.9403 46.5875 35.8788 46.5885C33.9322 46.5894 32.0164 46.527 30.16 46.3991C29.0537 44.809 27.9805 43.1239 26.9633 41.3668L26.7223 41.5063L26.9633 41.3668C25.9532 39.6222 25.0361 37.8721 24.2183 36.1431ZM23.9136 36.7978C24.6874 38.4058 25.545 40.0288 26.4813 41.6459C27.427 43.2794 28.4214 44.8525 29.4467 46.3465C26.3467 46.1028 23.4255 45.6726 20.8193 45.046C21.5593 42.4468 22.6033 39.652 23.9136 36.7978ZM23.6029 36.1434C22.1874 39.1729 21.0639 42.1485 20.2784 44.9119C19.391 44.6853 18.5425 44.435 17.7386 44.1607C14.674 43.1149 12.2333 41.7688 10.5642 40.3409C8.88731 38.9062 8.02825 37.4244 8.02762 36.1077L8.02762 36.1076C8.02657 34.8324 8.82839 33.4361 10.4056 32.0855C11.9765 30.7402 14.2805 29.4733 17.189 28.4577C18.1679 28.1159 19.2166 27.8011 20.3243 27.5162C21.1026 30.2413 22.2066 33.1616 23.6029 36.1434ZM20.1294 45.4487C19.2323 45.2193 18.3735 44.9658 17.5587 44.6878C14.4467 43.6258 11.9384 42.2495 10.2022 40.7641C8.47382 39.2854 7.47143 37.663 7.47068 36.108C7.46948 34.5971 8.41123 33.0601 10.0433 31.6625C11.6818 30.2594 14.0529 28.9628 17.0054 27.9319C17.9963 27.5859 19.0562 27.2676 20.1746 26.9797C19.9119 26.0155 19.6911 25.0773 19.5137 24.1713L19.5137 24.1712C18.9056 21.0635 18.813 18.3057 19.1868 16.136C19.5589 13.9763 20.4041 12.3451 21.725 11.5805C23.0984 10.7854 25.0297 10.8742 27.2043 11.686C29.3891 12.5016 31.8738 14.0652 34.4059 16.3135C34.9459 16.793 35.4878 17.3063 36.0296 17.8507C36.7334 17.142 37.4357 16.4826 38.1319 15.8769C40.5205 13.798 42.8635 12.3405 44.9299 11.5807C46.9869 10.8244 48.8222 10.742 50.1442 11.5043L50.0146 11.7292L50.1442 11.5043C51.5188 12.297 52.4063 14.0147 52.7892 16.3042C53.1737 18.6044 53.0601 21.5379 52.3768 24.8546C52.229 25.5725 52.0519 26.3096 51.8471 27.0625C52.7678 27.3087 53.6484 27.5762 54.4837 27.8633C57.4783 28.8925 59.9121 30.1929 61.6032 31.6025C63.2867 33.0057 64.2757 34.554 64.2766 36.08C64.2774 37.6668 63.2336 39.2943 61.4422 40.7706C59.6425 42.2537 57.0451 43.622 53.8312 44.6886C53.2343 44.8869 52.6144 45.0734 51.9738 45.2481C52.2073 46.0908 52.4046 46.9142 52.5631 47.7146L52.2899 47.7686L52.5631 47.7146C53.2016 50.9404 53.2658 53.8007 52.8491 56.0472C52.4342 58.2836 51.5314 59.9634 50.1856 60.7424C48.878 61.4994 47.076 61.4537 45.0489 60.7405C43.0141 60.0246 40.7048 58.6211 38.3343 56.5812C37.5989 55.9483 36.8544 55.2525 36.1069 54.5C35.4853 55.1324 34.8623 55.723 34.2398 56.267C31.7641 58.4311 29.318 59.9153 27.1635 60.6762C25.0188 61.4336 23.1125 61.4905 21.7655 60.7136C20.4565 59.9593 19.5962 58.3752 19.2019 56.2629C18.806 54.1424 18.8687 51.4407 19.4522 48.3683C19.6302 47.4305 19.8567 46.4546 20.1294 45.4487ZM20.67 45.5829C20.3996 46.5794 20.1753 47.5452 19.9993 48.4722C19.4246 51.4988 19.3698 54.1276 19.7493 56.1607C20.1304 58.2019 20.9387 59.5944 22.0436 60.2311L22.0437 60.2312C23.1843 60.889 24.8972 60.8859 26.9781 60.151C29.0492 59.4195 31.4353 57.9788 33.8733 55.8477L34.0566 56.0573L33.8733 55.8477C34.4872 55.3111 35.1024 54.7278 35.7168 54.1024C33.7405 52.0636 31.7501 49.6367 29.8557 46.936C26.5576 46.697 23.4422 46.2508 20.67 45.5829ZM36.4945 54.1C37.2346 54.8454 37.971 55.5338 38.6976 56.159C41.0328 58.1686 43.2828 59.5288 45.2338 60.2152C47.1925 60.9043 48.8027 60.8995 49.9066 60.2604L49.9066 60.2604C51.0462 59.6008 51.899 58.1154 52.3015 55.9456C52.7021 53.786 52.6455 50.9993 52.0167 47.8227C51.8607 47.0346 51.6661 46.2226 51.4355 45.3909C48.6745 46.1031 45.5531 46.6031 42.2396 46.8824C40.3885 49.5985 38.4512 52.0525 36.4945 54.1ZM41.5254 46.939C39.7692 49.482 37.9427 51.7768 36.1044 53.7021C34.245 51.7824 32.3689 49.5108 30.5718 46.9844C32.302 47.0933 34.0787 47.1463 35.8791 47.1454C37.797 47.1445 39.6884 47.0752 41.5254 46.939ZM42.6404 46.2883C45.7556 46.0053 48.6844 45.5244 51.2828 44.8551C50.5325 42.2907 49.4527 39.5496 48.1205 36.745C47.3337 38.3685 46.4657 40.0046 45.5284 41.63C44.5993 43.241 43.6331 44.8013 42.6404 46.2883ZM48.4291 36.0999C49.863 39.0713 51.0246 41.986 51.8213 44.7124C52.4545 44.5398 53.0667 44.3557 53.6558 44.1601L53.6558 44.1601C56.8253 43.1082 59.3559 41.7682 61.088 40.3408C62.8285 38.9065 63.7203 37.4211 63.7196 36.0803C63.7189 34.7974 62.8787 33.3907 61.2466 32.0303C59.6223 30.6763 57.2544 29.4044 54.3026 28.39L54.3026 28.39C53.4781 28.1065 52.6079 27.8423 51.6972 27.5989C50.9265 30.2889 49.8135 33.1687 48.4291 36.0999ZM51.3081 26.922C51.5107 26.178 51.6856 25.4504 51.8313 24.7422L51.8313 24.7422C52.5051 21.4714 52.61 18.6098 52.2398 16.396C51.8679 14.1716 51.0275 12.6566 49.866 11.9868C48.7546 11.3459 47.1163 11.3703 45.1221 12.1035C43.1373 12.8332 40.8519 14.2479 38.4975 16.297L38.4975 16.297C37.8101 16.8951 37.1161 17.5469 36.4198 18.2481C38.3915 20.2831 40.3571 22.7202 42.2284 25.4238C45.5006 25.7144 48.5713 26.2262 51.3081 26.922ZM36.0297 18.6458C37.8818 20.5587 39.7334 22.8361 41.5076 25.3636C39.7302 25.2247 37.8973 25.1507 36.0293 25.1475L36.0286 25.1464L35.8677 25.1465C34.052 25.1477 32.2621 25.2158 30.5203 25.3454C32.309 22.822 34.1741 20.5616 36.0297 18.6458ZM51.1581 27.4585C50.4325 29.9877 49.3986 32.6937 48.1152 35.4572C47.3222 33.8531 46.4522 32.2354 45.5196 30.6245C44.5967 29.0302 43.6313 27.4887 42.6371 26.0208C45.7063 26.3146 48.5843 26.805 51.1581 27.4585Z" fill="#52498C"/>
</g>
<defs>
<clipPath id="clip0_18_1350">
<rect width="72" height="72" fill="white"/>
</clipPath>
</defs>
</svg>
