<svg width="72" height="72" viewBox="0 0 72 72" fill="none" xmlns="http://www.w3.org/2000/svg">
<g clip-path="url(#clip0_18_1343)">
<mask id="mask0_18_1343" style="mask-type:luminance" maskUnits="userSpaceOnUse" x="0" y="0" width="72" height="72">
<path d="M0 0H72V72H0V0Z" fill="white"/>
</mask>
<g mask="url(#mask0_18_1343)">
<path d="M36 0C55.8 0 72 16.2 72 36C72 55.8 55.8 72 36 72C16.2 72 0 55.8 0 36C0 16.2 16.2 0 36 0ZM28.8 47.925C29.25 49.949 29.25 51.749 28.8 53.325L28.575 54C28.575 54.225 28.35 54.45 28.35 54.45C27.9 55.35 27.45 56.025 26.775 56.925C24.75 59.175 21.825 60.075 20.475 59.4C19.125 58.725 19.8 55.35 22.275 52.875C24.975 50.175 28.575 48.375 28.575 48.375L28.8 47.925ZM58.5 15.3C56.925 9 46.35 6.75 36.225 10.35C30.375 12.6 23.85 15.975 19.125 20.25C13.5 25.425 12.825 29.925 13.05 31.725C14.4 38.25 23.4 42.75 27.225 45.9C26.1 46.35 18 50.4 16.2 54.675C14.175 59.175 16.425 62.325 18 62.55C22.725 63.9 27.675 61.425 30.15 57.6C32.625 53.775 32.4 49.05 31.275 46.575C33.0252 46.0342 34.8858 45.9567 36.675 46.35C42.975 47.025 44.325 51.075 43.875 52.65C43.425 54.225 42.3 55.125 41.85 55.575C41.4 55.8 41.175 56.025 41.4 56.025C41.4 56.25 41.625 56.25 42.075 56.25C42.525 56.25 45.45 54.9 45.45 51.75C45.675 47.925 41.85 43.65 35.325 43.65C32.625 43.65 30.825 43.875 29.7 44.325C29.7 44.1 29.475 44.1 29.475 44.1C25.425 39.825 18 36.675 18.225 30.825C18.225 28.8 19.125 23.175 32.625 16.425C43.65 10.8 52.65 12.375 54.225 15.75C56.475 20.475 49.5 29.475 38.025 30.825C33.525 31.275 31.275 29.7 30.825 29.025C30.15 28.35 30.15 28.35 29.925 28.35C29.475 28.575 29.7 29.025 29.925 29.475C30.375 30.375 31.725 31.95 34.2 32.85C36.225 33.525 41.4 33.975 47.7 31.5C54.675 28.8 60.075 21.375 58.5 15.075V15.3Z" fill="#52498C"/>
</g>
</g>
<defs>
<clipPath id="clip0_18_1343">
<rect width="72" height="72" fill="white"/>
</clipPath>
</defs>
</svg>
