<svg width="72" height="72" viewBox="0 0 72 72" fill="none" xmlns="http://www.w3.org/2000/svg">
<g clip-path="url(#clip0_18_1334)">
<path fill-rule="evenodd" clip-rule="evenodd" d="M12 0C5.37258 0 0 5.37258 0 12V60C0 66.6274 5.37258 72 12 72H60C66.6274 72 72 66.6274 72 60V12C72 5.37258 66.6274 0 60 0H12ZM46.3477 22.1197L46.5352 21H48.7827H51.0377V26.5211C51.0377 26.5211 50.0552 26.4524 49.7077 26.4524C48.9817 26.4524 48.9679 26.5131 48.0188 30.6928L47.9627 30.9398C46.6927 36.5441 46.0852 38.331 45.0252 39.5137C44.5227 40.1208 44.3902 40.4244 44.6827 40.3041C45.4752 39.969 44.7077 41.2119 42.6977 43.4828C41.9402 44.339 41.5127 44.8316 41.3277 45.0922C41.2077 45.138 41.0702 45.1895 40.8952 45.2439C40.38 45.4153 39.8503 45.5228 39.3152 45.5647C39.0786 45.5811 38.8413 45.5589 38.6102 45.4988C38.4135 45.4377 38.2735 45.3356 38.1902 45.1924C38.1052 45.0435 38.0727 44.8402 38.1302 44.5337C38.2309 44.1147 38.3905 43.7172 38.6027 43.3568L39.4277 42.6093C39.6802 42.4261 40.1452 41.9994 40.8202 41.3035C41.6652 40.453 42.8577 39.3934 43.4652 38.9982C44.1527 38.5143 44.6027 37.9673 44.7352 37.4232C44.8152 36.9679 45.1852 36.1202 45.5027 35.5446C45.8727 34.8774 46.4552 32.847 46.9302 30.4244L47.7252 26.3636L46.9577 25.6363C46.1627 24.8487 46.0577 24.2416 46.3477 22.1197ZM55.5502 30.642C55.7077 30.3384 55.9727 30.0635 56.1327 30.0635C56.2652 30.095 58.5402 31.6099 61.1577 33.4885L66.0002 36.9135V39.3075L61.6602 42.4891C57.1978 45.6787 56.3621 46.3356 56.0046 46.136C55.8833 46.0682 55.817 45.9017 55.6827 45.7021C55.2602 45.0349 55.2852 45.0034 59.8902 41.7331C62.4277 39.9146 64.5452 38.3367 64.5977 38.2479C64.6502 38.1248 62.5602 36.5211 59.9677 34.6397C55.6027 31.5183 55.2602 31.1861 55.5502 30.642ZM10.8952 33.792C13.5127 31.945 15.7877 30.3986 15.9202 30.3986H15.9227C16.0802 30.3699 16.3477 30.642 16.5052 30.9427C16.5986 31.1137 16.6848 31.2312 16.6976 31.3562C16.7391 31.7629 16.0044 32.2489 12.2202 34.9146C11.9598 35.0998 11.7017 35.2834 11.4486 35.4634C9.59289 36.783 8.00838 37.9097 7.77518 38.0962C7.35018 38.4284 7.80018 38.8522 12.0577 41.9135C16.5277 45.1552 16.7952 45.3986 16.4777 45.9742C16.2652 46.3064 16.0527 46.5813 15.9477 46.5813C15.8427 46.5813 13.5677 45.0034 10.8677 43.0962L6.00018 39.6111V37.217L10.8952 33.792ZM30.6302 36.1288C35.3302 31.7331 36.9002 30.4587 37.6302 30.4644C37.7075 30.4605 37.787 30.4772 37.8577 30.5131C38.7302 30.8768 38.2277 31.9994 36.0852 34.4851C34.8677 35.8482 33.6502 37.1197 33.3602 37.3029C33.2187 37.3816 33.0953 37.4973 33.0002 37.6408L32.7252 37.7124C32.3177 37.8041 31.8127 37.8814 31.3852 37.8384C31.1702 37.8184 30.9752 37.7668 30.8252 37.6809C30.6719 37.5988 30.5643 37.4748 30.5027 37.3087C30.4102 37.0624 30.4277 36.6815 30.6302 36.1288ZM39.3377 34.8774C41.3202 33.0647 42.4777 32.2113 43.1202 32.1912C43.4102 32.1798 43.5952 32.343 43.7027 32.6666C43.9402 33.3339 42.7777 35.1208 40.5027 37.6351C39.7827 38.437 39.2077 39.1328 38.9577 39.5022L38.8252 39.5824L38.7527 39.6168C38.5132 39.7152 38.2705 39.8031 38.0252 39.8802C37.5535 40.0351 37.0658 40.117 36.5752 40.1237C36.3696 40.1283 36.1654 40.0844 35.9752 39.9948C35.8984 39.9601 35.8284 39.9083 35.7692 39.8425C35.71 39.7766 35.6627 39.698 35.6302 39.6111C35.5002 39.2588 35.5727 38.6202 36.0652 37.5893L37.3752 36.4037C37.7127 36.3006 38.3427 35.8024 39.3377 34.8774ZM35.7127 36.4238C36.4602 35.6735 36.8752 35.3069 37.0602 35.284V35.2869C37.2052 35.2697 37.2102 35.4644 37.1177 35.8482C37.0884 35.9625 37.0749 36.0813 37.0777 36.2004L25.0277 47.0738V41.4238L28.7052 37.9387L30.3302 36.4095C30.2252 36.819 30.2252 37.1397 30.3177 37.3974C30.4016 37.6126 30.5509 37.7856 30.7377 37.8843C30.936 37.9889 31.1497 38.0501 31.3677 38.0647C31.8302 38.1076 32.3477 38.0303 32.7627 37.9358L33.0477 37.8671C33.4552 38.1477 34.6327 37.5177 35.7127 36.4238ZM41.2702 38.0017C41.7577 37.4089 42.0627 37.1139 42.2452 37.1139V37.1111C42.4277 37.1111 42.4852 37.4089 42.4852 37.9988C42.4852 38.7577 42.1677 39.2703 40.7677 40.7565C40.246 41.3159 39.8568 41.7598 39.6002 42.0882L29.6952 51H25.0252V47.5492L35.6552 37.9587C35.3377 38.752 35.2802 39.3104 35.4252 39.7084C35.5136 39.9427 35.6788 40.1278 35.8852 40.2239C36.1029 40.328 36.3368 40.3806 36.5727 40.3785C37.0727 40.3929 37.6327 40.264 38.0827 40.1237C38.311 40.053 38.501 39.9881 38.6527 39.9289L38.9277 39.8087L39.0127 39.7571C39.5652 39.5967 40.6077 38.8121 41.2702 38.0017ZM43.7552 43.666L44.6027 42.6981V43.9095C44.6027 45.3356 43.8077 47.0022 42.0627 49.3333L40.7927 51H30.1627L38.1552 43.7663C38.0484 43.9917 37.9685 44.2325 37.9177 44.4822C37.8527 44.8335 37.8819 45.1151 38.0052 45.327C38.1354 45.5378 38.3298 45.6849 38.5502 45.7394C38.8034 45.8113 39.0649 45.8374 39.3252 45.8167C39.8758 45.7757 40.4207 45.6653 40.9502 45.4874C41.1889 45.412 41.4242 45.3231 41.6552 45.221C41.658 45.2196 41.6607 45.2184 41.6632 45.2172C41.6763 45.2111 41.6863 45.2063 41.7052 45.1895L41.7302 45.1609L41.7377 45.1466L41.8527 45.0893C42.4327 44.8172 43.2802 44.1815 43.7552 43.666Z" fill="#52498C"/>
</g>
<defs>
<clipPath id="clip0_18_1334">
<rect width="72" height="72" fill="white"/>
</clipPath>
</defs>
</svg>
