<svg width="72" height="72" viewBox="0 0 72 72" fill="none" xmlns="http://www.w3.org/2000/svg">
<g clip-path="url(#clip0_18_1338)">
<path fill-rule="evenodd" clip-rule="evenodd" d="M16.875 0H55.125C64.4448 0 72 7.55519 72 16.875V55.125C72 64.4448 64.4448 72 55.125 72H16.875C7.55519 72 0 64.4448 0 55.125V16.875C0 7.55519 7.55519 0 16.875 0ZM36 20.8125C29.25 20.8125 25.0312 24.1875 23.3438 30.9375C25.875 27.5625 28.8281 26.2969 32.2031 27.1406C34.1288 27.622 35.5051 29.019 37.0286 30.5655C39.5103 33.0845 42.3826 36 48.6562 36C55.4062 36 59.625 32.625 61.3125 25.875C58.7812 29.2504 55.8281 30.516 52.4531 29.6719C50.5275 29.1905 49.1512 27.7935 47.6277 26.247C45.146 23.728 42.2737 20.8125 36 20.8125ZM23.3438 36C16.5938 36 12.375 39.375 10.6875 46.125C13.2188 42.7496 16.1719 41.484 19.5469 42.3281C21.4725 42.8095 22.8488 44.2065 24.3723 45.753C26.854 48.272 29.7263 51.1875 36 51.1875C42.75 51.1875 46.9688 47.8125 48.6562 41.0625C46.125 44.4379 43.1719 45.7035 39.7969 44.8594C37.8712 44.378 36.4949 42.981 34.9714 41.4345C32.4897 38.9155 29.6174 36 23.3438 36Z" fill="#52498C"/>
</g>
<defs>
<clipPath id="clip0_18_1338">
<rect width="72" height="72" fill="white"/>
</clipPath>
</defs>
</svg>
