<svg width="72" height="72" viewBox="0 0 72 72" fill="none" xmlns="http://www.w3.org/2000/svg">
<g clip-path="url(#clip0_18_1361)">
<path fill-rule="evenodd" clip-rule="evenodd" d="M16.875 0H55.125C64.4448 0 72 7.55519 72 16.875V55.125C72 64.4448 64.4448 72 55.125 72H16.875C7.55519 72 0 64.4448 0 55.125V16.875C0 7.55519 7.55519 0 16.875 0ZM15.8994 39.1875L15.9222 36.2389L15.9565 33.3018L28.5394 33.2674C35.4536 33.2559 41.1565 33.279 41.1908 33.3245C41.2367 33.3589 41.2707 34.6959 41.2707 36.296V39.1875H31.8994V65.8159H25.2707V39.1875H15.8994ZM62.6001 35.8122C61.3202 34.4867 59.9257 33.6753 58.0973 33.218C56.8514 32.9094 53.903 32.818 52.6343 33.0579C48.7258 33.801 46.0171 36.3038 45.2515 39.8923C45.0344 40.9208 45.103 43.4695 45.3772 44.4865C45.7085 45.7094 46.5087 47.1725 47.3544 48.0865C48.8172 49.6638 50.4172 50.658 54.1314 52.258C57.3773 53.6637 58.52 54.3381 59.08 55.138C59.5143 55.7666 59.6172 56.1322 59.6172 56.9667C59.6172 57.8923 59.343 58.5209 58.6801 59.1267C57.1259 60.5209 53.9714 60.6924 51.6744 59.4808C50.8743 59.0581 49.5487 57.7894 48.9429 56.8638L48.5087 56.2236L46.4401 57.4237C45.2973 58.0866 44.0857 58.7839 43.7657 58.9667C43.4343 59.161 43.1371 59.3438 43.103 59.3894C43.0229 59.5266 44.3144 61.4352 44.9773 62.1667C46.6687 64.041 49.4115 65.4695 52.303 65.9839C53.6285 66.2238 56.5544 66.2581 57.7885 66.0409C61.7772 65.3665 64.6116 63.3322 65.7543 60.338C66.7944 57.5838 66.4516 53.8808 64.9202 51.5608C63.5485 49.4809 61.3429 48.0182 56.1888 45.8008C53.3886 44.5895 52.4971 43.9952 52.0173 43.0009C51.7886 42.5436 51.7087 42.2123 51.7087 41.6524C51.6972 39.7438 53.1029 38.6008 55.2857 38.7496C56.7715 38.8522 57.7429 39.4353 58.6685 40.7839C58.9771 41.2409 59.2516 41.5382 59.3202 41.4923C61.2172 40.3153 64.3487 38.2124 64.3259 38.121C64.2457 37.8125 63.263 36.521 62.6001 35.8122Z" fill="#52498C"/>
</g>
<defs>
<clipPath id="clip0_18_1361">
<rect width="72" height="72" fill="white"/>
</clipPath>
</defs>
</svg>
