<svg width="32" height="32" viewBox="0 0 32 32" fill="none" xmlns="http://www.w3.org/2000/svg">
<g clip-path="url(#clip0_17_395)">
<path d="M16 -0.000488281C24.8368 -0.000488281 32 7.16271 32 15.9995C32 24.8363 24.8368 31.9995 16 31.9995C13.1724 32.0044 10.3945 31.256 7.95202 29.8315L0.00642472 31.9995L2.16962 24.0507C0.743958 21.6074 -0.0049306 18.8283 2.44299e-05 15.9995C2.44299e-05 7.16271 7.16322 -0.000488281 16 -0.000488281ZM10.5472 8.47951L10.2272 8.49231C10.0203 8.50656 9.81817 8.5609 9.63202 8.65231C9.45854 8.75072 9.30012 8.87358 9.16162 9.01711C8.96962 9.19791 8.86082 9.3547 8.74402 9.5067C8.15221 10.2761 7.83358 11.2208 7.83842 12.1915C7.84162 12.9755 8.04642 13.7387 8.36642 14.4523C9.02082 15.8955 10.0976 17.4235 11.5184 18.8395C11.8608 19.1803 12.1968 19.5227 12.5584 19.8411C14.3239 21.3953 16.4277 22.5162 18.7024 23.1147L19.6112 23.2539C19.9072 23.2699 20.2032 23.2475 20.5008 23.2331C20.9667 23.2085 21.4216 23.0824 21.8336 22.8635C22.043 22.7552 22.2474 22.6378 22.4464 22.5115C22.4464 22.5115 22.5141 22.4656 22.6464 22.3675C22.8624 22.2075 22.9952 22.0939 23.1744 21.9067C23.3088 21.768 23.4208 21.607 23.5104 21.4235C23.6352 21.1627 23.76 20.6651 23.8112 20.2507C23.8496 19.9339 23.8384 19.7611 23.8336 19.6539C23.8272 19.4827 23.6848 19.3051 23.5296 19.2299L22.5984 18.8123C22.5984 18.8123 21.2064 18.2059 20.3552 17.8187C20.2661 17.7799 20.1707 17.7577 20.0736 17.7531C19.9641 17.7416 19.8535 17.7539 19.7491 17.7889C19.6448 17.824 19.5492 17.8811 19.4688 17.9563C19.4608 17.9531 19.3536 18.0443 18.1968 19.4459C18.1304 19.5351 18.039 19.6025 17.9341 19.6396C17.8292 19.6766 17.7157 19.6816 17.608 19.6539C17.5037 19.6261 17.4016 19.5908 17.3024 19.5483C17.104 19.4651 17.0352 19.4331 16.8992 19.3755C15.9806 18.9754 15.1303 18.4339 14.3792 17.7707C14.1776 17.5947 13.9904 17.4027 13.7984 17.2171C13.169 16.6142 12.6204 15.9323 12.1664 15.1883L12.072 15.0363C12.0052 14.9336 11.9505 14.8235 11.9088 14.7083C11.848 14.4731 12.0064 14.2843 12.0064 14.2843C12.0064 14.2843 12.3952 13.8587 12.576 13.6283C12.752 13.4043 12.9008 13.1867 12.9968 13.0315C13.1856 12.7275 13.2448 12.4155 13.1456 12.1739C12.6976 11.0795 12.2347 9.99097 11.7568 8.90831C11.6624 8.6939 11.3824 8.54031 11.128 8.5099C11.0416 8.49924 10.9552 8.49071 10.8688 8.48431C10.654 8.47198 10.4386 8.47412 10.224 8.49071L10.5472 8.47951Z" fill="#302A59"/>
</g>
<defs>
<clipPath id="clip0_17_395">
<rect width="32" height="32" fill="white" transform="translate(0 -0.000488281)"/>
</clipPath>
</defs>
</svg>
