<svg width="48" height="48" viewBox="0 0 48 48" fill="none" xmlns="http://www.w3.org/2000/svg">
<g clip-path="url(#clip0_18_1209)">
<path d="M40.896 40.9032H33.7872V29.7672C33.7872 27.1104 33.732 23.6928 30.0816 23.6928C26.376 23.6928 25.8096 26.5824 25.8096 29.5704V40.9032H18.7032V18H25.5288V21.12H25.6224C26.5752 19.32 28.896 17.424 32.3616 17.424C39.564 17.424 40.896 22.1616 40.896 28.332V40.9032ZM10.6728 14.8656C8.3832 14.8656 6.5448 13.0152 6.5448 10.7376C6.5448 8.46 8.3856 6.6096 10.6728 6.6096C11.7676 6.6096 12.8176 7.04451 13.5917 7.81866C14.3659 8.59281 14.8008 9.64279 14.8008 10.7376C14.8008 11.8324 14.3659 12.8824 13.5917 13.6565C12.8176 14.4307 11.7676 14.8656 10.6728 14.8656ZM14.2344 40.9056H7.1064V18H14.2344V40.9056ZM44.4528 0H3.5424C1.584 0 0 1.548 0 3.456V44.544C0 46.452 1.584 48 3.5424 48H44.4432C46.3992 48 48 46.4544 48 44.544V3.456C48 1.5504 46.3992 0 44.4432 0H44.4528Z" fill="#302A59"/>
</g>
<defs>
<clipPath id="clip0_18_1209">
<rect width="48" height="48" fill="white"/>
</clipPath>
</defs>
</svg>
