<svg width="32" height="32" viewBox="0 0 32 32" fill="none" xmlns="http://www.w3.org/2000/svg">
<g clip-path="url(#clip0_17_393)">
<path d="M28.4444 -0.000488281C29.3874 -0.000488281 30.2918 0.374114 30.9586 1.04091C31.6254 1.70771 32 2.61208 32 3.55507V28.444C32 29.3869 31.6254 30.2913 30.9586 30.9581C30.2918 31.6249 29.3874 31.9995 28.4444 31.9995H3.55556C2.61256 31.9995 1.70819 31.6249 1.0414 30.9581C0.374602 30.2913 0 29.3869 0 28.444V3.55507C0 2.61208 0.374602 1.70771 1.0414 1.04091C1.70819 0.374114 2.61256 -0.000488281 3.55556 -0.000488281H28.4444ZM27.5556 27.5551V18.1328C27.5556 16.5958 26.945 15.1216 25.8581 14.0348C24.7712 12.9479 23.2971 12.3373 21.76 12.3373C20.2489 12.3373 18.4889 13.2617 17.6356 14.6484V12.6751H12.6756V27.5551H17.6356V18.7906C17.6356 17.4217 18.7378 16.3017 20.1067 16.3017C20.7668 16.3017 21.3998 16.564 21.8666 17.0307C22.3333 17.4975 22.5956 18.1305 22.5956 18.7906V27.5551H27.5556ZM6.89778 9.88396C7.68989 9.88396 8.44956 9.56929 9.00967 9.00918C9.56978 8.44907 9.88445 7.6894 9.88445 6.89729C9.88445 5.24396 8.55111 3.89285 6.89778 3.89285C6.10095 3.89285 5.33676 4.20938 4.77331 4.77283C4.20987 5.33627 3.89333 6.10046 3.89333 6.89729C3.89333 8.55062 5.24444 9.88396 6.89778 9.88396ZM9.36889 27.5551V12.6751H4.44444V27.5551H9.36889Z" fill="#57F2AA"/>
</g>
<defs>
<clipPath id="clip0_17_393">
<rect width="32" height="32" fill="white" transform="translate(0 -0.000488281)"/>
</clipPath>
</defs>
</svg>
