<svg width="32" height="32" viewBox="0 0 32 32" fill="none" xmlns="http://www.w3.org/2000/svg">
<g clip-path="url(#clip0_17_391)">
<path d="M16 -0.000488281C13.8989 -0.000488281 11.8183 0.423639 9.87706 1.24768C7.93586 2.07171 6.17203 3.27953 4.68629 4.80215C1.68571 7.87723 0 12.0479 0 16.3967C0 23.6443 4.592 29.7933 10.944 31.9741C11.744 32.1053 12 31.597 12 31.1543V28.3831C7.568 29.367 6.624 26.1859 6.624 26.1859C5.888 24.2838 4.848 23.7755 4.848 23.7755C3.392 22.7589 4.96 22.7917 4.96 22.7917C6.56 22.9064 7.408 24.4806 7.408 24.4806C8.8 26.973 11.152 26.2351 12.064 25.8415C12.208 24.7757 12.624 24.0543 13.072 23.6443C9.52 23.2344 5.792 21.8242 5.792 15.5769C5.792 13.7568 6.4 12.2974 7.44 11.1332C7.28 10.7233 6.72 9.01799 7.6 6.80436C7.6 6.80436 8.944 6.36164 12 8.47688C13.264 8.11614 14.64 7.93577 16 7.93577C17.36 7.93577 18.736 8.11614 20 8.47688C23.056 6.36164 24.4 6.80436 24.4 6.80436C25.28 9.01799 24.72 10.7233 24.56 11.1332C25.6 12.2974 26.208 13.7568 26.208 15.5769C26.208 21.8406 22.464 23.218 18.896 23.6279C19.472 24.1362 20 25.1365 20 26.6614V31.1543C20 31.597 20.256 32.1217 21.072 31.9741C27.424 29.7769 32 23.6443 32 16.3967C32 14.2434 31.5861 12.1112 30.7821 10.1218C29.978 8.13239 28.7994 6.32477 27.3137 4.80215C25.828 3.27953 24.0641 2.07171 22.1229 1.24768C20.1817 0.423639 18.1012 -0.000488281 16 -0.000488281Z" fill="#57F2AA"/>
</g>
<defs>
<clipPath id="clip0_17_391">
<rect width="32" height="32" fill="white" transform="translate(0 -0.000488281)"/>
</clipPath>
</defs>
</svg>
