<svg width="128" height="128" viewBox="0 0 128 128" fill="none" xmlns="http://www.w3.org/2000/svg">
<g clip-path="url(#clip0_14_276)">
<path d="M0 0H107.52C112.952 0 118.161 2.15771 122.002 5.99845C125.842 9.8392 128 15.0484 128 20.48V107.52C128 112.952 125.842 118.161 122.002 122.002C118.161 125.842 112.952 128 107.52 128H20.48C15.0484 128 9.8392 125.842 5.99845 122.002C2.15771 118.161 0 112.952 0 107.52V0Z" fill="#663399"/>
<path d="M36.3159 99.48V80.664C36.3159 73.16 41.1319 69.128 48.4119 69.128C55.5799 69.016 60.0599 73.72 59.8359 81.672H51.5479C51.7719 78.648 50.4279 76.408 48.1879 76.52C45.3879 76.52 44.6039 78.424 44.6039 82.008V98.36C44.6039 101.832 45.7239 103.512 48.1879 103.624C50.7639 103.624 51.7719 101.048 51.5479 98.136H59.8359C60.2839 106.312 55.1319 111.128 47.8519 111.016C40.7959 111.016 36.3159 107.096 36.3159 99.48ZM62.8599 98.136H70.5879C70.6999 101.72 71.8199 103.96 74.2839 103.96C76.7479 103.96 77.6439 102.504 77.6439 99.144C77.6439 96.344 76.4119 94.776 73.3879 93.32L70.4759 91.976C65.3239 89.512 63.1959 86.488 63.1959 80.44C63.1959 73.72 67.4519 69.016 74.3959 69.016C81.3399 69.016 85.0359 73.832 85.1479 81.672H77.6439C77.6439 78.424 76.9719 76.184 74.5079 76.184C72.2679 76.184 71.1479 77.304 71.1479 80.104C71.1479 82.904 72.1559 84.024 74.8439 85.144L77.5319 86.376C83.2439 89.064 85.7079 92.536 85.7079 99.032C85.7079 106.76 81.3399 111.016 74.1719 111.016C67.0039 111.016 62.9719 106.088 62.8599 98.136ZM88.1719 98.136H96.0119C96.0119 101.72 97.2439 103.96 99.5959 103.96C101.948 103.96 102.956 102.504 102.956 99.144C102.956 96.344 101.836 94.776 98.6999 93.32L95.7879 91.976C90.6359 89.512 88.6199 86.488 88.6199 80.44C88.6199 73.72 92.7639 69.016 99.8199 69.016C106.876 69.016 110.348 73.832 110.572 81.672H103.068C102.956 78.424 102.284 76.184 99.8199 76.184C97.5799 76.184 96.5719 77.304 96.5719 80.104C96.5719 82.904 97.4679 84.024 100.156 85.144L102.956 86.376C108.556 89.064 111.02 92.536 111.02 99.032C111.02 106.76 106.652 111.016 99.4839 111.016C92.3159 111.016 88.2839 106.088 88.1719 98.136Z" fill="white"/>
</g>
<defs>
<clipPath id="clip0_14_276">
<rect width="128" height="128" fill="white"/>
</clipPath>
</defs>
</svg>
