<svg width="128" height="128" viewBox="0 0 128 128" fill="none" xmlns="http://www.w3.org/2000/svg">
<g clip-path="url(#clip0_14_349)">
<path d="M120.959 7.041C116.261 2.34273 110.608 -0.00426533 104 5.81901e-06H23.9996C17.3879 5.81901e-06 11.735 2.347 7.041 7.041C2.34273 11.7393 -0.00426533 17.3921 5.81901e-06 23.9996V104C5.81901e-06 110.612 2.347 116.265 7.041 120.959C11.7393 125.657 17.3921 128.004 23.9996 128H42.6688C43.8861 128 44.8022 127.957 45.4173 127.872C46.1336 127.73 46.7801 127.348 47.2496 126.789C47.8604 126.148 48.1658 125.219 48.1658 124.002L48.1209 118.332C48.0953 114.719 48.0825 111.857 48.0825 109.747L46.1605 110.08C44.9432 110.302 43.4034 110.401 41.5412 110.375C39.5981 110.338 37.6611 110.143 35.7495 109.792C33.7128 109.423 31.7959 108.565 30.1629 107.293C28.4487 105.997 27.1704 104.209 26.4982 102.168L25.6654 100.246C24.9607 98.7314 24.0789 97.3055 23.0386 95.9984C21.8427 94.4437 20.6339 93.3887 19.4124 92.8335L18.8358 92.417C18.4354 92.127 18.0699 91.7916 17.7466 91.4176C17.4379 91.0701 17.185 90.6767 16.9971 90.2516C16.8305 89.8586 16.9693 89.5383 17.4135 89.2906C17.8577 89.0343 18.6649 88.9083 19.8352 88.9126L21.501 89.1688C22.6115 89.3867 23.9847 90.0508 25.6205 91.1613C27.2738 92.2885 28.6549 93.7702 29.6632 95.4987C30.9445 97.7709 32.4864 99.5071 34.2888 100.707C36.0955 101.903 37.915 102.501 39.7473 102.501C41.5797 102.501 43.1643 102.362 44.5011 102.085C45.7959 101.816 47.054 101.395 48.2491 100.829C48.7488 97.1089 50.1092 94.2472 52.3302 92.244C49.4498 91.9594 46.595 91.4582 43.79 90.7449C41.0527 89.9939 38.4203 88.9026 35.9546 87.4967C33.3742 86.0919 31.0951 84.1937 29.2467 81.91C27.4699 79.689 26.0113 76.7739 24.8709 73.1648C23.7348 69.5514 23.1667 65.3828 23.1667 60.6589C23.1667 53.9404 25.36 48.217 29.7464 43.4889C27.6963 38.4361 27.8906 32.7725 30.3295 26.4982C31.9439 25.9942 34.3337 26.368 37.4986 27.6194C40.6635 28.8708 42.9827 29.9386 44.4563 30.8228C45.9298 31.7197 47.1108 32.4714 47.9992 33.0779C53.2072 31.6258 58.5902 30.8972 63.9968 30.9125C69.498 30.9125 74.8327 31.6343 80.0008 33.0779L83.1657 31.079C85.6002 29.6175 88.168 28.3904 90.8346 27.4144C93.7774 26.3039 96.0283 25.9985 97.5873 26.4982C100.086 32.7768 100.306 38.4425 98.2472 43.4953C102.638 48.2149 104.833 53.9382 104.833 60.6653C104.833 65.3892 104.263 69.5685 103.123 73.2033C101.987 76.8423 100.515 79.7595 98.7084 81.9548C96.8222 84.2039 94.5346 86.083 91.9622 87.4967C89.2713 88.9958 86.6595 90.0786 84.1267 90.7449C81.3218 91.4604 78.467 91.9637 75.5866 92.2505C78.4696 94.7491 79.9132 98.6914 79.9175 104.077V124.002C79.9175 124.942 80.0563 125.704 80.334 126.289C80.4635 126.57 80.6483 126.822 80.8772 127.03C81.1061 127.238 81.3746 127.398 81.6665 127.5C82.2773 127.722 82.8198 127.859 83.2939 127.91C83.768 127.97 84.4471 127.998 85.3312 127.994H104C110.612 127.994 116.265 125.647 120.959 120.953C125.653 116.259 128 110.606 128 103.994V23.9996C128 17.3879 125.657 11.735 120.959 7.041Z" fill="#F2F2F2"/>
</g>
<defs>
<clipPath id="clip0_14_349">
<rect width="128" height="128" fill="white"/>
</clipPath>
</defs>
</svg>
