<svg width="128" height="128" viewBox="0 0 128 128" fill="none" xmlns="http://www.w3.org/2000/svg">
<g clip-path="url(#clip0_14_259)">
<path d="M98 0H30C13.4315 0 0 13.4315 0 30V98C0 114.569 13.4315 128 30 128H98C114.569 128 128 114.569 128 98V30C128 13.4315 114.569 0 98 0Z" fill="#E14E1D"/>
<path d="M24 19L28.305 67.2965H83.66L81.8025 88.0115L63.9795 92.8305L46.19 88.0185L45.0005 74.7175H28.97L31.2625 100.358L63.976 109.444L96.731 100.358L101.122 51.3275H42.912L41.4505 34.9725H102.57L104 19H24Z" fill="white"/>
<path d="M64 19H24L28.305 67.2965H64V51.3275H42.912L41.4505 34.9725H64V19ZM64 92.8235L63.9795 92.8305L46.19 88.0185L45.0005 74.7175H28.97L31.2625 100.358L63.976 109.444L64.0005 109.437L64 92.8235Z" fill="#EBEBEB"/>
</g>
<defs>
<clipPath id="clip0_14_259">
<rect width="128" height="128" fill="white"/>
</clipPath>
</defs>
</svg>
