<svg width="128" height="128" viewBox="0 0 128 128" fill="none" xmlns="http://www.w3.org/2000/svg">
<g clip-path="url(#clip0_14_272)">
<path d="M98 0H30C13.4315 0 0 13.4315 0 30V98C0 114.569 13.4315 128 30 128H98C114.569 128 128 114.569 128 98V30C128 13.4315 114.569 0 98 0Z" fill="#F0DB4F"/>
<path d="M33.6558 106.966L43.4508 101.038C45.3408 104.389 47.0598 107.224 51.1833 107.224C55.1358 107.224 57.6278 105.678 57.6278 99.6635V58.7645H69.6568V99.8335C69.6568 112.292 62.3538 117.963 51.6988 117.963C42.0763 117.963 36.4908 112.98 33.6553 106.965M76.1903 105.677L85.9843 100.007C88.5628 104.217 91.9138 107.31 97.8418 107.31C102.826 107.31 106.004 104.818 106.004 101.381C106.004 97.257 102.739 95.796 97.2403 93.391L94.2338 92.1015C85.5553 88.4075 79.7983 83.7675 79.7983 73.9725C79.7983 64.9505 86.6723 58.0765 97.4128 58.0765C105.06 58.0765 110.559 60.7405 114.511 67.7L105.145 73.7145C103.083 70.02 100.85 68.5595 97.4128 68.5595C93.8898 68.5595 91.6558 70.7935 91.6558 73.7145C91.6558 77.323 93.8898 78.784 99.0448 81.0185L102.052 82.307C112.276 86.6895 118.033 91.1565 118.033 101.209C118.033 112.036 109.527 117.964 98.0998 117.964C86.9303 117.964 79.7128 112.637 76.1903 105.677Z" fill="#323330"/>
</g>
<defs>
<clipPath id="clip0_14_272">
<rect width="128" height="128" fill="white"/>
</clipPath>
</defs>
</svg>
