<svg width="128" height="128" viewBox="0 0 128 128" fill="none" xmlns="http://www.w3.org/2000/svg">
<g clip-path="url(#clip0_14_330)">
<path d="M98 0H30C13.4315 0 0 13.4315 0 30V98C0 114.569 13.4315 128 30 128H98C114.569 128 128 114.569 128 98V30C128 13.4315 114.569 0 98 0Z" fill="#F4F2ED"/>
<path d="M59.9388 15.5579C62.3983 14.1504 65.6013 14.1439 68.0583 15.5579C80.4193 22.5429 92.7843 29.5164 105.143 36.5054C107.468 37.8149 109.023 40.4019 108.999 43.0804V85.1029C109.017 87.8924 107.308 90.5414 104.856 91.8209C92.5353 98.7674 80.2208 105.722 67.9023 112.668C65.3928 114.103 62.1253 113.993 59.6933 112.44C55.9998 110.299 52.2998 108.168 48.6058 106.029C47.8508 105.579 46.9998 105.221 46.4668 104.489C46.9383 103.854 47.7808 103.775 48.4653 103.497C50.0068 103.007 51.4233 102.22 52.8393 101.456C53.1978 101.211 53.6348 101.305 53.9783 101.524C57.1368 103.335 60.2678 105.199 63.4368 106.993C64.1128 107.383 64.7973 106.865 65.3753 106.543C77.4653 99.7094 89.5703 92.9024 101.659 86.0669C102.107 85.8514 102.354 85.3759 102.318 84.8854C102.326 71.0229 102.32 57.1584 102.322 43.2954C102.373 42.7394 102.051 42.2274 101.548 41.9994C89.2703 35.0849 76.9983 28.1604 64.7228 21.2444C64.5101 21.0983 64.2582 21.0199 64.0002 21.0194C63.7422 21.019 63.49 21.0966 63.2768 21.2419C51.0008 28.1604 38.7318 35.0919 26.4558 42.0054C25.9543 42.2339 25.6178 42.7374 25.6773 43.2954C25.6798 57.1584 25.6773 71.0229 25.6773 84.8874C25.6559 85.1269 25.7084 85.3673 25.8279 85.5759C25.9473 85.7846 26.1279 85.9516 26.3453 86.0544C29.6208 87.9119 32.9008 89.7564 36.1788 91.6079C38.0258 92.6014 40.2928 93.1924 42.3278 92.4309C44.1228 91.7869 45.3813 89.9544 45.3473 88.0484C45.3643 74.2669 45.3388 60.4834 45.3598 46.7034C45.3148 46.0919 45.8953 45.5864 46.4903 45.6444C48.0643 45.6334 49.6403 45.6229 51.2143 45.6484C51.8713 45.6334 52.3233 46.2924 52.2423 46.9084C52.2358 60.7774 52.2593 74.6464 52.2318 88.5149C52.2358 92.2114 50.7173 96.2334 47.2983 98.0419C43.0868 100.223 37.8808 99.7609 33.7198 97.6689C30.1178 95.8709 26.6798 93.7489 23.1418 91.8229C20.6828 90.5504 18.9828 87.8909 19.0003 85.1034V43.0804C18.9743 40.3464 20.5913 37.7124 22.9878 36.4219C35.3063 29.4704 47.6228 22.5129 59.9388 15.5579Z" fill="#81CD39"/>
<path d="M70.6859 44.6675C76.0584 44.3215 81.8099 44.4625 86.6444 47.1095C90.3879 49.1375 92.4629 53.3945 92.5289 57.553C92.4244 58.1135 91.8379 58.423 91.3024 58.3845C89.7439 58.3825 88.1844 58.406 86.6259 58.374C85.9644 58.3995 85.5804 57.79 85.4974 57.2055C85.0494 55.2155 83.9639 53.245 82.0914 52.285C79.2164 50.846 75.8834 50.9185 72.7479 50.9485C70.4599 51.0695 67.9989 51.268 66.0599 52.6135C64.5714 53.633 64.1194 55.691 64.6504 57.3485C65.1514 58.5385 66.5249 58.9225 67.6489 59.2765C74.1239 60.97 80.9849 60.801 87.3354 63.0295C89.9654 63.938 92.5374 65.7045 93.4374 68.4575C94.6149 72.1475 94.0989 76.5575 91.4734 79.5195C89.3444 81.957 86.2439 83.284 83.1514 84.0045C79.0374 84.922 74.7679 84.9455 70.5899 84.538C66.6614 84.09 62.5729 83.058 59.5404 80.3815C56.9469 78.1295 55.6804 74.6205 55.8059 71.2345C55.8359 70.6625 56.4054 70.2635 56.9534 70.3105C58.5229 70.298 60.0929 70.2935 61.6624 70.313C62.2894 70.268 62.7544 70.81 62.7864 71.401C63.0759 73.2965 63.7884 75.2865 65.4414 76.41C68.6319 78.4685 72.6354 78.3275 76.2884 78.385C79.3144 78.251 82.7119 78.2105 85.1819 76.21C86.4849 75.069 86.8709 73.16 86.5189 71.518C86.1374 70.1315 84.6869 69.4855 83.4414 69.063C77.0499 67.0415 70.1119 67.775 63.7824 65.4885C61.2124 64.5805 58.7274 62.8635 57.7404 60.2235C56.3629 56.487 56.9939 51.865 59.8944 49.0035C62.7224 46.156 66.8044 45.0595 70.6859 44.6675Z" fill="#81CD39"/>
</g>
<defs>
<clipPath id="clip0_14_330">
<rect width="128" height="128" fill="white"/>
</clipPath>
</defs>
</svg>
