<svg width="128" height="128" viewBox="0 0 128 128" fill="none" xmlns="http://www.w3.org/2000/svg">
<g clip-path="url(#clip0_14_352)">
<mask id="mask0_14_352" style="mask-type:luminance" maskUnits="userSpaceOnUse" x="0" y="0" width="128" height="128">
<path d="M0 0H128V128H0V0Z" fill="white"/>
</mask>
<g mask="url(#mask0_14_352)">
<path d="M64 0C99.2 0 128 28.8 128 64C128 99.2 99.2 128 64 128C28.8 128 0 99.2 0 64C0 28.8 28.8 0 64 0ZM51.2 85.2C52 88.7982 52 91.9982 51.2 94.8L50.8 96C50.8 96.4 50.4 96.8 50.4 96.8C49.6 98.4 48.8 99.6 47.6 101.2C44 105.2 38.8 106.8 36.4 105.6C34 104.4 35.2 98.4 39.6 94C44.4 89.2 50.8 86 50.8 86L51.2 85.2ZM104 27.2C101.2 16 82.4 12 64.4 18.4C54 22.4 42.4 28.4 34 36C24 45.2 22.8 53.2 23.2 56.4C25.6 68 41.6 76 48.4 81.6C46.4 82.4 32 89.6 28.8 97.2C25.2 105.2 29.2 110.8 32 111.2C40.4 113.6 49.2 109.2 53.6 102.4C58 95.6 57.6 87.2 55.6 82.8C58.7115 81.8386 62.0193 81.7008 65.2 82.4C76.4 83.6 78.8 90.8 78 93.6C77.2 96.4 75.2 98 74.4 98.8C73.6 99.2 73.2 99.6 73.6 99.6C73.6 100 74 100 74.8 100C75.6 100 80.8 97.6 80.8 92C81.2 85.2 74.4 77.6 62.8 77.6C58 77.6 54.8 78 52.8 78.8C52.8 78.4 52.4 78.4 52.4 78.4C45.2 70.8 32 65.2 32.4 54.8C32.4 51.2 34 41.2 58 29.2C77.6 19.2 93.6 22 96.4 28C100.4 36.4 88 52.4 67.6 54.8C59.6 55.6 55.6 52.8 54.8 51.6C53.6 50.4 53.6 50.4 53.2 50.4C52.4 50.8 52.8 51.6 53.2 52.4C54 54 56.4 56.8 60.8 58.4C64.4 59.6 73.6 60.4 84.8 56C97.2 51.2 106.8 38 104 26.8V27.2Z" fill="#CD6799"/>
</g>
</g>
<defs>
<clipPath id="clip0_14_352">
<rect width="128" height="128" fill="white"/>
</clipPath>
</defs>
</svg>
