<svg width="128" height="128" viewBox="0 0 128 128" fill="none" xmlns="http://www.w3.org/2000/svg">
<g clip-path="url(#clip0_14_309)">
<rect width="128" height="128" rx="12" fill="white"/>
<path d="M40.5801 49.6489V36.8499L55.3771 24.9139C58.6711 22.2569 61.8851 21.4199 65.3121 23.3179C66.6491 24.0579 67.1251 26.5069 66.2671 28.3939L40.5801 49.6489Z" fill="url(#paint0_linear_14_309)"/>
<path d="M54.5601 25.7931C57.3231 22.4341 61.0401 19.4191 65.4071 16.7801C68.3001 15.0321 70.6261 18.6201 68.1261 22.2171C65.5361 25.6291 62.0111 28.5651 59.1381 30.5791C57.2091 31.9311 53.3021 27.3231 54.5601 25.7931Z" fill="url(#paint1_linear_14_309)"/>
<path d="M54.5601 25.7931C57.3231 22.4341 61.0401 19.4191 65.4071 16.7801C68.3001 15.0321 70.6261 18.6201 68.1261 22.2171C65.5361 25.6291 62.0111 28.5651 59.1381 30.5791C57.2091 31.9311 53.3021 27.3231 54.5601 25.7931Z" fill="url(#paint2_radial_14_309)"/>
<path d="M40.5801 49.649V53.907H53.0941L76.0251 35.275C78.3341 33.064 78.0721 29.39 76.9271 27.38C74.5261 23.162 69.6041 26.967 66.2671 28.394L40.5801 49.649Z" fill="url(#paint3_linear_14_309)"/>
<path d="M65.5562 28.6839C67.7732 26.2539 77.5722 17.7239 79.3822 19.5619C81.0282 21.2339 80.1252 24.9189 76.2012 29.2489C73.0932 32.6769 69.1772 34.9849 67.1412 33.3719C65.4512 32.0349 64.2632 30.1019 65.5562 28.6839Z" fill="url(#paint4_linear_14_309)"/>
<path d="M65.5562 28.6839C67.7732 26.2539 77.5722 17.7239 79.3822 19.5619C81.0282 21.2339 80.1252 24.9189 76.2012 29.2489C73.0932 32.6769 69.1772 34.9849 67.1412 33.3719C65.4512 32.0349 64.2632 30.1019 65.5562 28.6839Z" fill="url(#paint5_radial_14_309)"/>
<path d="M53.0942 53.907H72.3222C77.4582 48.941 83.9032 43.035 81.2212 38.411C79.6412 35.69 77.8112 35.193 76.0252 35.275L53.0942 53.907Z" fill="url(#paint6_linear_14_309)"/>
<path d="M83.44 31.149C82.884 27.809 71.154 37.774 70.447 39.091C69.763 40.364 71.515 45.241 74.29 43.995C77.843 42.316 84.361 36.678 83.44 31.149Z" fill="url(#paint7_linear_14_309)"/>
<path d="M83.44 34.149C82.884 30.809 71.154 40.774 70.447 42.091C69.763 43.364 71.515 48.241 74.29 46.995C77.843 45.316 84.361 39.678 83.44 34.149Z" fill="url(#paint8_radial_14_309)"/>
<path d="M84.1911 24.045C80.3611 26.927 82.8441 31.625 78.4131 34.192C84.2011 35.389 87.7681 27.305 86.8291 24.34L84.1911 24.045Z" fill="url(#paint9_linear_14_309)"/>
<path d="M84.1911 24.045C80.3611 26.927 82.8441 31.625 78.4131 34.192C84.2011 35.389 87.7681 27.305 86.8291 24.34L84.1911 24.045Z" fill="url(#paint10_radial_14_309)"/>
<path d="M91.7602 8.45796L86.8362 24.66C85.9022 25.035 84.8162 24.777 84.2002 24.019L88.1002 7.30896L91.7602 8.45796Z" fill="url(#paint11_linear_14_309)"/>
<path d="M95.0119 0V10.163C91.6259 11.513 83.0579 8.137 84.0559 4.952L85.6059 0H95.0119Z" fill="url(#paint12_linear_14_309)"/>
<path d="M23.636 17.022L2.97597 29.822V34.356L23.636 47.156L25.202 44.626L4.96197 32.088L25.202 19.552L23.636 17.022ZM105.567 17.022L126.227 29.822V34.356L105.567 47.156L104.002 44.626L124.242 32.088L104.002 19.552L105.567 17.022ZM5.61097 104.743C8.22497 104.743 9.63097 103.337 9.63097 101.553C9.63097 99.696 8.15297 99.011 6.81897 98.506C5.73797 98.11 4.81897 97.839 4.81897 97.1C4.81897 96.524 5.25097 96.127 6.16997 96.127C6.90997 96.127 7.61197 96.487 8.33297 96.992L9.52297 95.388C8.69297 94.739 7.55797 94.144 6.09797 94.144C3.79097 94.144 2.33097 95.424 2.33097 97.226C2.33097 98.921 3.75497 99.696 5.03497 100.182C6.09797 100.597 7.14297 100.94 7.14297 101.697C7.14297 102.327 6.69297 102.76 5.68297 102.76C4.72797 102.76 3.88097 102.345 2.97997 101.66L1.77197 103.337C2.78197 104.166 4.25897 104.743 5.61097 104.743ZM14.93 104.743C15.813 104.743 16.516 104.526 17.075 104.364L16.625 102.436C16.354 102.544 15.957 102.652 15.633 102.652C14.732 102.652 14.245 102.112 14.245 100.958V96.488H16.751V94.397H14.245V91.675H12.065L11.758 94.397L10.19 94.523V96.487H11.614V100.976C11.614 103.211 12.533 104.743 14.93 104.743ZM19.707 108.528C21.96 108.528 23.041 107.176 23.924 104.797L27.511 94.397H24.97L23.582 99.083C23.33 100.02 23.077 100.993 22.861 101.931H22.771C22.482 100.958 22.23 99.984 21.924 99.083L20.319 94.397H17.652L21.582 104.292L21.401 104.905C21.112 105.788 20.536 106.437 19.508 106.437C19.274 106.437 18.986 106.365 18.805 106.311L18.319 108.348C18.715 108.456 19.112 108.528 19.707 108.528ZM31.675 104.743C32.288 104.743 32.72 104.635 33.027 104.508L32.702 102.544C32.522 102.58 32.45 102.58 32.342 102.58C32.089 102.58 31.819 102.382 31.819 101.769V90.107H29.169V101.661C29.169 103.535 29.819 104.743 31.675 104.743ZM38.922 94.143C36.525 94.143 34.217 96.179 34.217 99.441C34.217 102.776 36.417 104.742 39.247 104.742C40.49 104.742 41.768 104.31 42.76 103.625L41.86 102.004C41.12 102.454 40.417 102.688 39.605 102.688C38.091 102.688 37.009 101.839 36.793 100.199H43.012C43.084 99.947 43.139 99.461 43.139 98.975C43.139 96.163 41.698 94.143 38.922 94.143ZM38.955 96.199C40.271 96.199 40.867 97.064 40.867 98.416H36.74C36.957 96.956 37.892 96.199 38.955 96.199ZM51.447 90.105V93.658L51.537 95.244C50.817 94.577 50.114 94.143 48.979 94.143C46.816 94.143 44.744 96.161 44.744 99.441C44.744 102.758 46.346 104.742 48.869 104.742C49.915 104.742 50.925 104.184 51.664 103.445H51.738L51.936 104.49H54.098V90.105H51.448H51.447ZM49.557 96.325C50.206 96.325 50.834 96.523 51.447 97.082V101.518C50.87 102.275 50.26 102.561 49.557 102.561C48.223 102.561 47.465 101.517 47.465 99.408C47.465 97.408 48.421 96.325 49.557 96.325ZM6.69297 124.377C7.80997 124.377 9.03597 123.998 9.99097 123.151L8.94597 121.403C8.38697 121.871 7.71997 122.213 6.98097 122.213C5.52097 122.213 4.47597 120.988 4.47597 119.077C4.47597 117.185 5.52097 115.941 7.07097 115.941C7.63097 115.941 8.09897 116.175 8.60297 116.59L9.86497 114.914C9.12597 114.247 8.17097 113.778 6.92697 113.778C4.18697 113.778 1.77197 115.725 1.77197 119.078C1.77197 122.431 3.91797 124.377 6.69297 124.377ZM15.578 113.78C13.037 113.78 10.73 115.726 10.73 119.078C10.73 122.43 13.037 124.377 15.578 124.377C18.102 124.377 20.428 122.431 20.428 119.078C20.428 115.726 18.102 113.78 15.578 113.78ZM15.578 115.941C16.948 115.941 17.725 117.186 17.725 119.078C17.725 120.988 16.948 122.213 15.578 122.213C14.19 122.213 13.434 120.989 13.434 119.078C13.434 117.186 14.19 115.941 15.578 115.941ZM22.645 124.124H25.295V117.184C25.997 116.41 26.646 116.049 27.223 116.049C28.196 116.049 28.647 116.59 28.647 118.159V124.124H31.278V117.184C31.999 116.41 32.648 116.049 33.225 116.049C34.18 116.049 34.631 116.59 34.631 118.159V124.124H37.262V117.834C37.262 115.292 36.289 113.778 34.144 113.778C32.846 113.778 31.855 114.571 30.918 115.545C30.449 114.427 29.602 113.778 28.16 113.778C26.844 113.778 25.907 114.499 25.06 115.382H25.006L24.808 114.031H22.645V124.124ZM45.408 113.78C44.308 113.78 43.283 114.355 42.436 115.076H42.383L42.182 114.029H40.02V128H42.67V124.916L42.58 123.277C43.337 123.98 44.203 124.377 45.086 124.377C47.303 124.377 49.375 122.375 49.375 118.914C49.375 115.814 47.878 113.78 45.408 113.78ZM44.654 115.96C46.042 115.96 46.652 117.023 46.652 118.951C46.652 121.151 45.697 122.197 44.508 122.197C43.949 122.197 43.318 121.998 42.67 121.439V116.986C43.355 116.301 43.97 115.96 44.654 115.96ZM55.846 113.78C53.304 113.78 50.998 115.726 50.998 119.078C50.998 122.43 53.304 124.377 55.846 124.377C58.369 124.377 60.693 122.431 60.693 119.078C60.693 115.726 58.369 113.78 55.846 113.78ZM55.846 115.941C57.216 115.941 57.99 117.186 57.99 119.078C57.99 120.988 57.216 122.213 55.846 122.213C54.458 122.213 53.701 120.989 53.701 119.078C53.701 117.186 54.458 115.941 55.846 115.941ZM62.911 124.124H65.561V117.184C66.3 116.446 66.841 116.049 67.651 116.049C68.643 116.049 69.076 116.59 69.076 118.159V124.124H71.726V117.834C71.726 115.292 70.788 113.778 68.607 113.778C67.237 113.778 66.21 114.499 65.327 115.364H65.273L65.074 114.031H62.911V124.124ZM78.426 113.78C76.069 113.842 73.834 115.867 73.834 119.078C73.834 122.413 76.034 124.377 78.864 124.377C80.107 124.377 81.388 123.943 82.379 123.257L81.479 121.637C80.739 122.087 80.034 122.32 79.223 122.32C77.709 122.32 76.628 121.474 76.413 119.834H82.629C82.701 119.582 82.756 119.094 82.756 118.607C82.756 115.796 81.315 113.779 78.539 113.779L78.426 113.78ZM78.574 115.834C79.89 115.834 80.484 116.699 80.484 118.051H76.357C76.574 116.591 77.511 115.834 78.574 115.834ZM84.937 124.124H87.587V117.184C88.326 116.446 88.867 116.049 89.677 116.049C90.669 116.049 91.102 116.59 91.102 118.159V124.124H93.752V117.834C93.752 115.292 92.814 113.778 90.633 113.778C89.263 113.778 88.236 114.499 87.353 115.364H87.299L87.1 114.031H84.937V124.124ZM100.186 124.377C101.069 124.377 101.772 124.16 102.331 123.998L101.881 122.069C101.61 122.178 101.213 122.286 100.889 122.286C99.988 122.286 99.501 121.745 99.501 120.591V116.121H102.007V114.031H99.5V111.309H97.32L97.013 114.031L95.445 114.157V116.121H96.869V120.609C96.869 122.844 97.789 124.377 100.186 124.377ZM106.747 124.377C109.361 124.377 110.767 122.971 110.767 121.187C110.767 119.33 109.289 118.645 107.955 118.14C106.873 117.744 105.954 117.473 105.954 116.734C105.954 116.157 106.387 115.761 107.306 115.761C108.045 115.761 108.748 116.121 109.469 116.626L110.659 115.022C109.829 114.373 108.694 113.778 107.234 113.778C104.927 113.778 103.467 115.058 103.467 116.86C103.467 118.555 104.891 119.33 106.17 119.816C107.234 120.231 108.28 120.573 108.28 121.33C108.28 121.961 107.829 122.394 106.82 122.394C105.864 122.394 105.017 121.979 104.116 121.294L102.908 122.971C103.918 123.8 105.394 124.377 106.747 124.377Z" fill="#4A4A4A"/>
</g>
<defs>
<linearGradient id="paint0_linear_14_309" x1="46.9802" y1="30.7552" x2="53.3541" y2="38.7378" gradientUnits="userSpaceOnUse">
<stop offset="0.085" stop-color="#CC7F12"/>
<stop offset="0.127" stop-color="#FFC22F"/>
<stop offset="0.5" stop-color="#FFD468"/>
<stop offset="1" stop-color="#FFD255"/>
</linearGradient>
<linearGradient id="paint1_linear_14_309" x1="58.3073" y1="20.6557" x2="63.9675" y2="27.4001" gradientUnits="userSpaceOnUse">
<stop stop-color="#BF4F95"/>
<stop offset="0.284" stop-color="#D26AAA"/>
<stop offset="0.588" stop-color="#DC81BB"/>
<stop offset="0.711" stop-color="#D76CAD"/>
<stop offset="0.825" stop-color="#D26CAB"/>
<stop offset="0.957" stop-color="#CA629D"/>
<stop offset="1" stop-color="#C96499"/>
</linearGradient>
<radialGradient id="paint2_radial_14_309" cx="0" cy="0" r="1" gradientUnits="userSpaceOnUse" gradientTransform="translate(62.1152 23.4153) rotate(44.1948) scale(5.31445 10.0656)">
<stop stop-color="#B94481" stop-opacity="0"/>
<stop offset="0.694" stop-color="#B94481" stop-opacity="0.186"/>
<stop offset="1" stop-color="#B94481"/>
</radialGradient>
<linearGradient id="paint3_linear_14_309" x1="55.5184" y1="35.9383" x2="63.9958" y2="46.1365" gradientUnits="userSpaceOnUse">
<stop offset="0.027" stop-color="#CC7F12"/>
<stop offset="0.157" stop-color="#FFC22F"/>
<stop offset="0.5" stop-color="#FFD468"/>
<stop offset="1" stop-color="#FFD255"/>
</linearGradient>
<linearGradient id="paint4_linear_14_309" x1="70.6889" y1="24.4164" x2="75.0567" y2="29.5223" gradientUnits="userSpaceOnUse">
<stop stop-color="#BF4F95"/>
<stop offset="0.284" stop-color="#D26AAA"/>
<stop offset="0.588" stop-color="#DC81BA"/>
<stop offset="0.711" stop-color="#D76CAD"/>
<stop offset="0.825" stop-color="#D26CAB"/>
<stop offset="0.957" stop-color="#CA629D"/>
<stop offset="1" stop-color="#C96499"/>
</linearGradient>
<radialGradient id="paint5_radial_14_309" cx="0" cy="0" r="1" gradientUnits="userSpaceOnUse" gradientTransform="translate(72.5858 26.6008) rotate(42.0702) scale(5.75674 10.1421)">
<stop stop-color="#B94481" stop-opacity="0"/>
<stop offset="0.694" stop-color="#B94481" stop-opacity="0.186"/>
<stop offset="1" stop-color="#B94481"/>
</radialGradient>
<linearGradient id="paint6_linear_14_309" x1="64.434" y1="43.4139" x2="72.9289" y2="53.9637" gradientUnits="userSpaceOnUse">
<stop offset="0.027" stop-color="#CC7F12"/>
<stop offset="0.157" stop-color="#FFC22F"/>
<stop offset="0.5" stop-color="#FFD468"/>
<stop offset="1" stop-color="#FFD255"/>
</linearGradient>
<linearGradient id="paint7_linear_14_309" x1="74.3205" y1="34.4024" x2="78.7992" y2="39.7827" gradientUnits="userSpaceOnUse">
<stop stop-color="#BF4F95"/>
<stop offset="0.284" stop-color="#D26AAA"/>
<stop offset="0.588" stop-color="#DC81BB"/>
<stop offset="0.711" stop-color="#D76CAD"/>
<stop offset="0.825" stop-color="#D26CAB"/>
<stop offset="0.957" stop-color="#CA629D"/>
<stop offset="1" stop-color="#C96499"/>
</linearGradient>
<radialGradient id="paint8_radial_14_309" cx="0" cy="0" r="1" gradientUnits="userSpaceOnUse" gradientTransform="translate(76.9037 40.6517) rotate(-40.4719) scale(10.4584 3.93762)">
<stop stop-color="#B94481" stop-opacity="0"/>
<stop offset="0.644" stop-color="#B94481" stop-opacity="0.186"/>
<stop offset="1" stop-color="#B94481"/>
</radialGradient>
<linearGradient id="paint9_linear_14_309" x1="85.1628" y1="26.5667" x2="80.7085" y2="33.2948" gradientUnits="userSpaceOnUse">
<stop stop-color="#DC83B9"/>
<stop offset="0.159" stop-color="#DE77B5"/>
<stop offset="0.56" stop-color="#DD74B3"/>
<stop offset="0.797" stop-color="#D65FA3"/>
<stop offset="1" stop-color="#C95195" stop-opacity="0.992"/>
</linearGradient>
<radialGradient id="paint10_radial_14_309" cx="0" cy="0" r="1" gradientUnits="userSpaceOnUse" gradientTransform="translate(83.5674 29.602) rotate(20.4814) scale(2.84157 6.19061)">
<stop stop-color="#B94481" stop-opacity="0"/>
<stop offset="0.644" stop-color="#B94481" stop-opacity="0.186"/>
<stop offset="1" stop-color="#B94481"/>
</radialGradient>
<linearGradient id="paint11_linear_14_309" x1="84.1985" y1="16.0704" x2="92.1068" y2="18.0779" gradientUnits="userSpaceOnUse">
<stop offset="0.195" stop-color="#974377"/>
<stop offset="0.247" stop-color="#CC76AC"/>
<stop offset="0.33" stop-color="#F5A3D4"/>
<stop offset="0.39" stop-color="#FCA6DA"/>
<stop offset="0.476" stop-color="#E980C1"/>
<stop offset="0.62" stop-color="#A34D81"/>
</linearGradient>
<linearGradient id="paint12_linear_14_309" x1="83.9744" y1="5.2338" x2="95.6138" y2="8.54581" gradientUnits="userSpaceOnUse">
<stop offset="0.021" stop-color="#A65486"/>
<stop offset="0.095" stop-color="#DB77B4"/>
<stop offset="0.146" stop-color="#F188C8"/>
<stop offset="0.255" stop-color="#FFADDF"/>
<stop offset="0.372" stop-color="#FFADDF"/>
<stop offset="0.576" stop-color="#EE84C5"/>
<stop offset="0.747" stop-color="#DA6FB0"/>
<stop offset="1" stop-color="#A63D7B"/>
</linearGradient>
<clipPath id="clip0_14_309">
<rect width="128" height="128" fill="white"/>
</clipPath>
</defs>
</svg>
