<svg width="128" height="128" viewBox="0 0 128 128" fill="none" xmlns="http://www.w3.org/2000/svg">
<g clip-path="url(#clip0_14_279)">
<path d="M98 0H30C13.4315 0 0 13.4315 0 30V98C0 114.569 13.4315 128 30 128H98C114.569 128 128 114.569 128 98V30C128 13.4315 114.569 0 98 0Z" fill="#007ACC"/>
<path d="M28.3056 64.4245L28.2651 69.6665H44.9251V117.006H56.7096V69.6665H73.3696V64.526C73.3696 61.6815 73.3091 59.3045 73.2276 59.2435C73.1666 59.1625 63.0281 59.1215 50.7361 59.142L28.3666 59.203L28.3056 64.4245ZM103.284 59.054C106.534 59.867 109.013 61.3095 111.289 63.666C112.467 64.926 114.214 67.222 114.357 67.7705C114.397 67.933 108.83 71.6715 105.458 73.764C105.336 73.8455 104.848 73.317 104.299 72.5045C102.654 70.107 100.927 69.0705 98.2851 68.888C94.4046 68.6235 91.9056 70.6555 91.9261 74.0485C91.9261 75.044 92.0681 75.633 92.4746 76.446C93.3276 78.2135 94.9126 79.27 99.8906 81.4235C109.054 85.3655 112.975 87.966 115.413 91.6635C118.136 95.788 118.745 102.371 116.896 107.268C114.865 112.591 109.826 116.207 102.735 117.406C100.541 117.792 95.3391 117.731 92.9826 117.305C87.8421 116.39 82.9661 113.851 79.9591 110.519C78.7806 109.218 76.4846 105.825 76.6271 105.581C76.6876 105.5 77.2161 105.175 77.8051 104.83C78.3741 104.505 80.5281 103.265 82.5596 102.087L86.2371 99.953L87.0091 101.091C88.0861 102.737 90.4426 104.992 91.8651 105.744C95.9486 107.898 101.557 107.593 104.32 105.114C105.498 104.037 105.986 102.92 105.986 101.274C105.986 99.7905 105.803 99.1405 105.031 98.023C104.035 96.601 102.004 95.402 96.2331 92.903C89.6301 90.0585 86.7856 88.291 84.1851 85.487C82.6816 83.862 81.2591 81.261 80.6701 79.087C80.1826 77.279 80.0606 72.748 80.4466 70.9195C81.8076 64.54 86.6231 60.0905 93.5716 58.7695C95.8271 58.343 101.069 58.5055 103.284 59.054Z" fill="white"/>
</g>
<defs>
<clipPath id="clip0_14_279">
<rect width="128" height="128" fill="white"/>
</clipPath>
</defs>
</svg>
