<svg width="14" height="14" viewBox="0 0 14 14" fill="none" xmlns="http://www.w3.org/2000/svg">
<path d="M5.30629 12.3958V10.5606C5.30631 10.1106 5.4626 9.67449 5.74846 9.32688C3.99554 9.09354 2.66846 8.24246 2.66846 5.94471C2.66846 4.97288 3.50379 3.67554 3.50379 3.67554C3.20396 3.01638 3.21212 1.87654 3.53879 1.60413C3.53879 1.60413 4.67629 1.70621 5.78287 2.62496C6.85504 2.33621 7.97854 2.30179 9.08512 2.62496C10.1917 1.70621 11.3298 1.60413 11.3298 1.60413C11.6553 1.87654 11.664 3.01696 11.3648 3.67554C11.3648 3.67554 12.2001 4.97288 12.2001 5.94471C12.2001 8.24304 10.8725 9.09354 9.12012 9.32688C9.40577 9.67457 9.56186 10.1106 9.56171 10.5606V12.3958" stroke="#57F2AA" stroke-width="1.5" stroke-linecap="round" stroke-linejoin="round"/>
<path d="M1.80029 9.66577C1.89538 9.98894 2.07038 10.2876 2.31246 10.5384C2.55396 10.7899 2.85613 10.9876 3.19504 11.1148C3.53622 11.2428 3.90049 11.2978 4.26426 11.2761C4.62803 11.2544 4.98318 11.1565 5.30671 10.9888" stroke="#57F2AA" stroke-width="1.5" stroke-linecap="round" stroke-linejoin="round"/>
</svg>
