<svg width="14" height="14" viewBox="0 0 14 14" fill="none" xmlns="http://www.w3.org/2000/svg">
<path fill-rule="evenodd" clip-rule="evenodd" d="M5.8335 1.16663C5.36937 1.16663 4.92425 1.351 4.59606 1.67919C4.26787 2.00738 4.0835 2.4525 4.0835 2.91663V3.49996H2.3335C1.367 3.49996 0.583496 4.28346 0.583496 5.24996V11.0833C0.583496 12.0498 1.367 12.8333 2.3335 12.8333H11.6668C12.6333 12.8333 13.4168 12.0498 13.4168 11.0833V5.24996C13.4168 4.28346 12.6333 3.49996 11.6668 3.49996H9.91683V2.91663C9.91683 2.4525 9.73246 2.00738 9.40427 1.67919C9.07608 1.351 8.63096 1.16663 8.16683 1.16663H5.8335ZM8.75016 3.49996V2.91663C8.75016 2.76192 8.68871 2.61354 8.57931 2.50415C8.46991 2.39475 8.32154 2.33329 8.16683 2.33329H5.8335C5.67879 2.33329 5.53041 2.39475 5.42102 2.50415C5.31162 2.61354 5.25016 2.76192 5.25016 2.91663V3.49996H8.75016ZM5.25016 4.66663H8.75016V11.6666H5.25016V4.66663ZM4.0835 4.66663H2.3335C2.01133 4.66663 1.75016 4.92779 1.75016 5.24996V11.0833C1.75016 11.4055 2.01133 11.6666 2.3335 11.6666H4.0835V4.66663ZM9.91683 11.6666V4.66663H11.6668C11.989 4.66663 12.2502 4.92779 12.2502 5.24996V11.0833C12.2502 11.4055 11.989 11.6666 11.6668 11.6666H9.91683Z" fill="#57F2AA"/>
</svg>
